<?xml version="1.0" encoding="utf-8"?>
<!-- Generator: Adobe Illustrator 21.1.0, SVG Export Plug-In . SVG Version: 6.00 Build 0)  -->
<svg version="1.1" id="Layer_1" xmlns="http://www.w3.org/2000/svg" xmlns:xlink="http://www.w3.org/1999/xlink" x="0px" y="0px"
	 viewBox="0 0 285 285" style="enable-background:new 0 0 285 285;" xml:space="preserve">
<style type="text/css">
	.st0{fill:#FFFFFF;}
	.st1{fill:none;}
	.st2{fill:#3FA7CE;}
	.st3{font-family:'Lato-Regular';}
	.st4{font-size:40px;}
</style>
<g>
	<circle class="st0" cx="142.5" cy="142.5" r="140"/>
	<rect x="6.8" y="42.5" class="st1" width="271.5" height="204.8"/>
	<text transform="matrix(1 0 0 1 97.6406 71.98)"><tspan x="0" y="0" class="st2 st3 st4">MAX</tspan><tspan x="-28.2" y="160" class="st2 st3 st4">POWER</tspan></text>
	<g>
		<path class="st2" d="M151.3,87.5c0.1-0.5-0.1-0.6-0.4-0.1l-37,61.3c-0.3,0.5-0.1,0.9,0.5,0.9h28c0.6,0,0.9,0.4,0.8,1l-8.6,39
			c-0.1,0.5,0,0.6,0.3,0.1l34.9-56.3c0.3-0.5,0.1-0.8-0.5-0.8h-24c-0.6,0-0.9-0.4-0.8-1L151.3,87.5z"/>
	</g>
</g>
</svg>
