<?xml version="1.0" encoding="utf-8"?>
<!-- Generator: Adobe Illustrator 21.1.0, SVG Export Plug-In . SVG Version: 6.00 Build 0)  -->
<svg version="1.1" id="Layer_1" xmlns="http://www.w3.org/2000/svg" xmlns:xlink="http://www.w3.org/1999/xlink" x="0px" y="0px"
	 viewBox="0 0 135 135" style="enable-background:new 0 0 135 135;" xml:space="preserve">
<style type="text/css">
	.st0{fill:#FFFFFF;}
</style>
<g>
	<path class="st0" d="M132,59c0.6,0,1,0.5,1,1v14c0,0.6-0.4,1-1,1H76c-0.6,0-1,0.4-1,1v55c0,0.6-0.4,1-1,1H61c-0.5,0-1-0.4-1-1V76
		c0-0.6-0.5-1-1-1H3c-0.5,0-1-0.4-1-1V60c0-0.5,0.5-1,1-1h56c0.5,0,1-0.5,1-1V3c0-0.5,0.5-1,1-1h13c0.6,0,1,0.5,1,1v55
		c0,0.5,0.4,1,1,1H132z"/>
</g>
</svg>
